<svg xmlns="http://www.w3.org/2000/svg">
  <symbol id='dance' viewBox="0 0 37 37">
    <path d="M26.6101 8.11009C25.3979 8.11009 24.2198 8.31452 23.097 8.71878V7.49352C23.097 7.19419 22.8544 6.95152 22.555 6.95152H0.541992C0.242668 6.95152 0 7.19419 0 7.49352V29.5066C0 29.8059 0.242668 30.0486 0.541992 30.0486H22.555C22.8544 30.0486 23.097 29.8059 23.097 29.5066V28.2813C24.2197 28.6856 25.3978 28.89 26.6101 28.89C32.3391 28.8899 37 24.229 37 18.5C37 12.771 32.3391 8.11009 26.6101 8.11009ZM1.08398 28.9646V8.03551H22.0131V28.9646H1.08398ZM26.6101 27.8059C25.391 27.8059 24.2111 27.5746 23.097 27.1194V21.4604C23.941 22.4603 25.2023 23.097 26.6101 23.097C29.1449 23.097 31.2071 21.0347 31.2071 18.4999C31.2071 15.9651 29.1449 13.9029 26.6101 13.9029C25.2023 13.9029 23.941 14.5396 23.097 15.5394V9.88045C24.2112 9.42525 25.3911 9.19393 26.6101 9.19393C31.7414 9.19407 35.916 13.3687 35.916 18.5C35.916 23.6313 31.7414 27.8059 26.6101 27.8059ZM23.097 18.5C23.097 16.5629 24.673 14.987 26.6101 14.987C28.5472 14.987 30.1231 16.5629 30.1231 18.5C30.1231 20.4371 28.5472 22.0131 26.6101 22.0131C24.6729 22.0131 23.097 20.4371 23.097 18.5Z"/>
    <path d="M26.6158 19.042C26.9151 19.042 27.1577 18.7993 27.1577 18.5C27.1577 18.2007 26.9151 17.958 26.6158 17.958H26.6099C26.3106 17.958 26.0708 18.2007 26.0708 18.5C26.0708 18.7993 26.3164 19.042 26.6158 19.042Z" />
    <path d="M13.8658 17.9954C12.6086 17.9954 11.5859 18.8881 11.5859 19.9856C11.5859 21.083 12.6086 21.9758 13.8658 21.9758C15.1229 21.9758 16.1456 21.083 16.1456 19.9856V14.9083C16.1456 14.4318 15.9342 13.9852 15.5657 13.6831C15.1973 13.381 14.718 13.2612 14.2506 13.3548L11.1015 13.9846C10.0395 14.1969 9.26873 15.1371 9.26873 16.2202V19.4507C8.92084 19.2628 8.51117 19.1539 8.0728 19.1539C6.81567 19.1539 5.79297 20.0467 5.79297 21.1441C5.79297 22.2415 6.81567 23.1343 8.0728 23.1343C9.32994 23.1343 10.3527 22.2415 10.3527 21.1441V16.2202C10.3527 15.6521 10.757 15.1589 11.3141 15.0475L14.4633 14.4177C14.6652 14.3772 14.8101 14.4653 14.8786 14.5214C14.9469 14.5775 15.0617 14.7023 15.0617 14.9083V18.2921C14.7137 18.1042 14.3041 17.9954 13.8658 17.9954ZM8.0728 22.0504C7.42458 22.0504 6.87695 21.6354 6.87695 21.1442C6.87695 20.653 7.42458 20.238 8.0728 20.238C8.72103 20.238 9.26873 20.653 9.26873 21.1442C9.26873 21.6354 8.7211 22.0504 8.0728 22.0504ZM13.8658 20.8918C13.2175 20.8918 12.6699 20.4768 12.6699 19.9856C12.6699 19.4944 13.2175 19.0794 13.8658 19.0794C14.514 19.0794 15.0616 19.4944 15.0616 19.9856C15.0616 20.4768 14.514 20.8918 13.8658 20.8918Z"/>
    <path d="M18.1221 12.8052C17.8843 12.9869 17.8389 13.3271 18.0207 13.5649C20.4867 16.7913 20.181 21.3897 17.3097 24.261C14.4384 27.1323 9.83998 27.438 6.61354 24.972C6.37578 24.7903 6.03563 24.8357 5.85381 25.0735C5.67206 25.3113 5.71752 25.6515 5.95534 25.8332C7.56585 27.0641 9.53697 27.7264 11.5601 27.7264C11.7502 27.7264 11.9407 27.7206 12.1314 27.7088C14.3743 27.5704 16.4854 26.6182 18.0762 25.0275C19.667 23.4367 20.6192 21.3255 20.7576 19.0827C20.8946 16.8617 20.2285 14.6683 18.8819 12.9066C18.7 12.6689 18.36 12.6234 18.1221 12.8052Z" />
    <path d="M5.7875 12.7389C8.65883 9.86751 13.2572 9.5619 16.4836 12.0279C16.7214 12.2097 17.0615 12.1643 17.2433 11.9264C17.4251 11.6886 17.3796 11.3484 17.1418 11.1667C15.3801 9.82018 13.1873 9.15381 10.9657 9.29105C8.72285 9.42943 6.61168 10.3817 5.02097 11.9724C3.43026 13.5632 2.47802 15.6744 2.33963 17.9172C2.20261 20.1381 2.86869 22.3315 4.21528 24.0933C4.32202 24.2328 4.48325 24.3062 4.64628 24.3062C4.76103 24.3062 4.87673 24.2698 4.97501 24.1947C5.21284 24.013 5.25829 23.6728 5.07655 23.435C2.61048 20.2086 2.91617 15.6103 5.7875 12.7389Z" />
    <path d="M26.6101 11.0066C25.9761 11.0066 25.3461 11.086 24.7374 11.2426C24.4475 11.3172 24.273 11.6127 24.3476 11.9026C24.4221 12.1924 24.7177 12.367 25.0075 12.2924C25.528 12.1585 26.0671 12.0905 26.61 12.0905C30.1442 12.0905 33.0195 14.9659 33.0195 18.5001C33.0195 22.0343 30.1442 24.9096 26.61 24.9096C26.0669 24.9096 25.5277 24.8417 25.0072 24.7077C24.7172 24.633 24.4219 24.8076 24.3472 25.0975C24.2726 25.3873 24.4471 25.6828 24.737 25.7575C25.3457 25.9142 25.9759 25.9937 26.61 25.9937C30.7419 25.9937 34.1035 22.6321 34.1035 18.5001C34.1035 14.3682 30.7419 11.0066 26.6101 11.0066Z"/>
  </symbol>
  <symbol id='hip-hop' viewBox="-52 0 512 512.00104">
    <path d="m124.484375 152.753906c3.023437 1.089844 12.140625 4.386719 14.109375 5.097656l34.703125 12.542969.035156 13.332031 15-.039062-.0625-23.835938-44.78125-16.183593c2.023438-5.855469.398438-1.148438 8.714844-25.242188l49.742187 17.882813c19.699219 27.007812 15.148438 20.765625 21.308594 29.214844h27.855469l12.222656-18.539063 42.742188 2.335937v22.882813h-28.289063l-.011718 83.828125 15 .003906.007812-68.828125h28.296875v-.007812h87.449219l-26.921875-111.527344-25.335938-13.144531-33.910156 7.335937 15.175781 64.832031-23.800781.023438-46.796875-2.558594v-9.222656l12.746094 1.609375c4.378906-34.664063 5.960937-47.21875 8.730468-69.117187l-.007812-.003907c3.238281-27.222656-16.277344-51.652343-43.058594-55.023437-26.007812-3.296875-49.191406 14.050781-54.625 38.273437l-45.066406-7.734375-2.539062 14.789063 45.492187 7.804687h.003906l-3.53125 27.964844c1.636719 2.113281 12.492188 16.109375 14.070313 18.144531v19.714844c-66.953125-24.066406-23.050782-8.230469-186.601563-67.351563l-12.550781 34.710938 11.875 25.324219zm215.957031-71.453125 13.71875-2.96875 14.46875 7.503907 20.84375 86.363281h-68.394531v-22.484375l35.371094-.035156zm-88.507812 55.710938-8.90625 13.507812h-12.148438c-.328125-.449219-16.472656-22.589843-16.726562-22.941406v-11.304687l37.78125 4.769531zm14.746094-29.226563c-14.082032-1.78125-4.554688-.574218-46.808594-5.914062-4.066406-5.28125-12.300782-16.003906-19.101563-24.855469l2.640625-20.941406c13.945313 2.390625 54.300782 9.3125 68.320313 11.714843zm-23.210938-92.5c18.496094 2.328125 31.921875 18.992188 30.132812 37.605469l-68.066406-11.671875c4.125-16.625 20.179688-28.183594 37.933594-25.933594zm-114.089844 123.285156-106.558594-38.523437-6.597656-14.070313 5.335938-14.761718 116.527344 42.125c-7.457032 21.613281-5.511719 15.976562-8.707032 25.230468zm0 0"/><path d="m292.765625 291.519531v-15.484375h-15.003906v11.171875h-89.167969l-.210938-83.519531-15 .039062c.152344 60.367188-.121093-47.195312.25 98.480469.097657 0-1.265624-4.851562 27.710938 101.421875l-49.035156 39.683594-44.183594 34.171875 22.457031 29.261719 27.710938 3.644531 23.96875-18.210937.144531.179687c7.207031-5.84375 4.507812-3.714844 11.808594-9.261719l-.152344-.1875 72.097656-58.445312-21.382812-78.425782h23.382812l45.867188 28.460938-19.402344 66.484375-11.214844 34.800781 12.757813 24.894532 35.128906 11.320312 15.015625-46.582031.164062.050781c2.59375-8.726562 1.570313-5.441406 4.4375-14.332031l-.164062-.050781 31.082031-104.582032zm-138.636719 203.191407-15.429687-2.027344-9.574219-12.476563 26.628906-20.589843c8.746094 10.746093 8.417969 10.339843 17.03125 20.921874zm177.492188-126.949219-59.183594-36.722657h-47.300781l23.976562 87.933594-64.523437 52.304688-17.070313-20.972656 50.875-41.171876-29.132812-106.847656 93.839843.902344 81.082032 50.050781-27.714844 93.246094-25.429688-8.195313zm.410156 93.054687-10.410156 32.304688-14.941406-4.816406-7.085938-13.832032 7.039062-21.84375c2.628907.847656 22.03125 7.101563 25.398438 8.1875zm0 0"/><path d="m214.90625 256.53125v-15.003906h15.003906v15.003906zm25.003906 0v-15.003906h15v15.003906zm0 0"/>
  </symbol>
  <symbol id="rock" viewBox="0 0 128 128">
    <path d="m45.772 109.674a12.749 12.749 0 0 1 -8.163 3.079 18.258 18.258 0 0 1 -9.248-2.938 1.75 1.75 0 0 0 -1.8 3 21.67 21.67 0 0 0 11.043 3.433 16.112 16.112 0 0 0 10.349-3.846 1.75 1.75 0 1 0 -2.186-2.733z"/><path d="m38.7 96.64a1.75 1.75 0 0 0 2.279-2.657l-8.259-7.091a1.75 1.75 0 0 0 -2.28 2.656z"/><path d="m44.907 89.411a1.75 1.75 0 0 0 2.279-2.657l-8.262-7.091a1.75 1.75 0 0 0 -2.279 2.656z"/><path d="m122.887 5.43a1.755 1.755 0 0 0 -1.649-.663l-27.348 4.145a1.752 1.752 0 0 0 -1.4 1.178l-3.2 9.611-30.037 34.315c-3.084-.678-5.176-1.935-6.357-3.851a13.1 13.1 0 0 1 -1.526-5.513l-.022-.19c-.023-.191-.045-.423-.07-.688-.218-2.34-.585-6.256-3.085-7.941a4.629 4.629 0 0 0 -4.073-.48c-4.172 1.245-5.964 7.889-8.039 15.583-1.414 5.241-2.874 10.659-5.06 14.189a8.4 8.4 0 0 1 -5 2.581 24.853 24.853 0 0 0 -15.8 8.425c-9.321 10.869-6.575 26.922 6.529 38.177 6.9 5.923 14.054 8.891 20.827 8.891 6.473 0 12.6-2.712 17.834-8.146 5.11-5.31 6.083-12.161 6-16.991a7.791 7.791 0 0 1 .135-1.65c.013-.046.024-.094.034-.141a8.213 8.213 0 0 1 1.231-2.987q.028-.042.054-.087c1.631-2.814 4.6-5.291 10.247-8.55.6-.343 1.218-.7 1.874-1.055 6.752-3.725 7.821-7.062 7.527-9.206-.312-2.286-2.312-4.08-5.344-4.8-.825-.2-1.783-.438-2.638-.715-2.619-.834-4.095-1.861-5.054-5.21l29.4-34.926a1.566 1.566 0 0 0 .188-.084c.144-.091 14.478-9.172 19.945-12.68a1.747 1.747 0 0 0 .668-.794c1-2.37 3.43-7.985 3.431-7.986a1.75 1.75 0 0 0 -.222-1.761zm-56.7 56.7c0 .006-.007.013-.012.019l-9.5 11.283-5.575-4.789 10-11.426.012-.009 29.539-33.747 4.849 3.856zm7.271 10.07c.96.312 2 .573 2.9.789 1.528.361 2.583 1.094 2.689 1.867.146 1.071-1.272 3.2-5.742 5.663-.672.367-1.313.733-1.937 1.091-6.2 3.577-9.537 6.415-11.5 9.784a11.7 11.7 0 0 0 -1.7 4.084q-.019.066-.033.135a11.307 11.307 0 0 0 -.223 2.524c.072 4.152-.741 10.036-5.022 14.485-9.41 9.772-21.751 9.417-33.859-.974-11.568-9.93-14.155-23.91-6.154-33.238a21.411 21.411 0 0 1 13.623-7.236 11.9 11.9 0 0 0 7.223-3.812 1.662 1.662 0 0 0 .18-.237c2.513-3.974 4.063-9.721 5.561-15.278s3.359-12.453 5.663-13.141c.74-.223 1.012-.039 1.114.029 1.126.759 1.439 4.105 1.556 5.365.029.3.054.563.08.779l.022.189a16.347 16.347 0 0 0 2.025 6.94 11.72 11.72 0 0 0 6.768 4.938l-9.392 10.721a1.75 1.75 0 0 0 .176 2.48l8.26 7.091a1.753 1.753 0 0 0 1.14.422q.07 0 .141-.006a1.749 1.749 0 0 0 1.2-.617l8.668-10.3c1.474 3.206 3.735 4.563 6.573 5.463zm43.2-58.885c-4.817 3.086-15.105 9.609-18.421 11.711l-5.556-4.426 2.793-8.391 23.168-3.509c-.662 1.535-1.442 3.357-1.98 4.619z"/>
  </symbol>
  <symbol id='folk' viewBox="0 0 128 128">
    <g>
      <path d="m25.66 88.06a5.6 5.6 0 1 0 -7.92 7.92l14.95 14.94a5.6 5.6 0 0 0 7.92 0 5.613 5.613 0 0 0 0-7.92zm12.47 20.39a2.157 2.157 0 0 1 -2.97 0l-14.95-14.95a2.1 2.1 0 0 1 2.98-2.97l9.23 9.24 5.71 5.71a2.056 2.056 0 0 1 .62 1.48 2.1 2.1 0 0 1 -.62 1.49z"/>
      <path d="m125.62 15.44 2.06-2.9a1.758 1.758 0 0 0 -.19-2.25l-9.78-9.78a1.758 1.758 0 0 0 -2.25-.19l-2.9 2.06-1.57-1.57a1.75 1.75 0 0 0 -2.48 2.47l1.15 1.15-2.92 2.08-1.57-1.56a1.747 1.747 0 1 0 -2.47 2.47l1.14 1.15-2.93 2.07-1.55-1.55a1.75 1.75 0 1 0 -2.48 2.47l1.15 1.15a1.923 1.923 0 0 0 -.47.62l-3.72 8.57-26.59 25.8-.27-.28a20.782 20.782 0 0 0 -29.43 0l-1.6 1.61a19.427 19.427 0 0 0 -4.74 7.53c-2.09 6.29-5.44 8.99-12.37 9.97l-.22.03c-7.57 1.08-14.33 6.93-17.24 14.9-2.59 7.12-1.48 14.33 2.97 19.3.25.28.52.56.79.83l21.27 21.27c.27.27.55.54.83.79a17.389 17.389 0 0 0 11.76 4.35 22.147 22.147 0 0 0 7.54-1.38c7.97-2.91 13.82-9.67 14.9-17.24l.05-.38c.95-6.7 3.53-9.89 9.85-12.18a21.682 21.682 0 0 0 7.86-4.99l1.38-1.38a21 21 0 0 0 3.21-4.13 21.664 21.664 0 0 0 2.657-13.513 20.631 20.631 0 0 0 -6.147-12.057l25.8-26.59 8.57-3.72a1.923 1.923 0 0 0 .62-.47l1.15 1.15a1.75 1.75 0 0 0 2.47-2.48l-1.55-1.55 2.07-2.93 1.15 1.14a1.726 1.726 0 0 0 2.47 0 1.732 1.732 0 0 0 0-2.47l-1.56-1.56 2.08-2.93 1.15 1.15a1.726 1.726 0 0 0 1.23.51 1.75 1.75 0 0 0 1.24-2.99zm-54.58 33.46 8.06 8.06-3.44 3.55-8.17-8.17zm2.18 14.12-3.44 3.55-8.35-8.35 3.55-3.44zm-13.84 5.6a16.727 16.727 0 0 0 -5.09-3.47l4.63-4.49 8.42 8.42-4.49 4.63a16.726 16.726 0 0 0 -3.47-5.09zm-2.47 21.06a13.145 13.145 0 0 1 -18.59-18.59 13.145 13.145 0 0 1 18.59 18.59zm26.056-16.509a17.437 17.437 0 0 1 -2.186 11.359 18.152 18.152 0 0 1 -2.68 3.45l-1.38 1.37a17.983 17.983 0 0 1 -6.57 4.18c-7.49 2.71-11 7.05-12.12 14.97l-.06.39c-.89 6.3-5.85 11.97-12.63 14.44-5.88 2.15-11.77 1.29-15.76-2.29-.24-.21-.47-.43-.69-.65l-21.28-21.28c-.22-.22-.44-.45-.65-.69-3.58-3.99-4.44-9.88-2.29-15.76 2.47-6.78 8.14-11.74 14.44-12.63l.22-.03c8.28-1.18 12.68-4.75 15.2-12.34a15.948 15.948 0 0 1 3.89-6.16l1.6-1.6a17.328 17.328 0 0 1 24.48 0l.24.23-8.1 7.86-6.19 6.01a16.769 16.769 0 0 0 -14.6 4.62 16.638 16.638 0 0 0 23.53 23.53 16.778 16.778 0 0 0 4.62-14.6l8-8.25 5.87-6.04a18.074 18.074 0 0 1 5.096 9.911zm-1.426-18.721-7.99-7.99 3.55-3.45 7.89 7.89zm5.88-6.07-7.8-7.8 3.55-3.45 7.7 7.7zm5.88-6.06-7.62-7.62 3.55-3.45 7.52 7.52zm5.89-6.06-7.45-7.45 3.55-3.44 7.34 7.34zm18.65-15.9a2.409 2.409 0 0 0 -.14.2l-3.9 5.5a1.951 1.951 0 0 0 -.28.38l-.69.98-7.35 3.19-8.09-8.09 3.19-7.35.98-.69a2.4 2.4 0 0 0 .38-.27l5.51-3.91a2.026 2.026 0 0 0 .18-.13l8.65-6.14 7.69 7.69z"/><path d="m106.483 16.213a1.75 1.75 0 0 0 -2.475 2.475l5.3 5.3a1.75 1.75 0 1 0 2.475-2.475z"/><path d="m112.227 12a1.75 1.75 0 1 0 -2.475 2.475l3.771 3.771a1.75 1.75 0 1 0 2.477-2.472z"/>
    </g>
    </symbol>
    <symbol id='classic' viewBox="-28 0 511 511.99978">
      <path d="m395.78125 230.578125-67.355469-5.089844c-5.949219-.441406-11.226562 3.433594-12.566406 9.238281l-9.652344 41.691407c-2.808593-2.128907-6.054687-3.664063-9.589843-4.480469-6.597657-1.527344-13.394532-.394531-19.140626 3.1875-5.746093 3.585938-9.75 9.195312-11.277343 15.792969-1.527344 6.597656-.394531 13.394531 3.191406 19.140625s9.191406 9.75 15.789063 11.277344c1.914062.441406 3.847656.664062 5.765624.664062 4.691407 0 9.296876-1.3125 13.375-3.855469 5.746094-3.585937 9.75-9.191406 11.277344-15.789062l14.285156-61.714844 61.25 4.628906-8.550781 36.9375c-2.761719-2.097656-5.992187-3.667969-9.585937-4.5-6.597656-1.527343-13.394532-.394531-19.140625 3.191407-5.746094 3.585937-9.75 9.191406-11.277344 15.789062s-.394531 13.398438 3.191406 19.140625c3.585938 5.746094 9.191407 9.75 15.789063 11.277344 1.917968.445312 3.851562.664062 5.769531.664062 4.6875 0 9.296875-1.308593 13.371094-3.855469 5.746093-3.582031 9.75-9.191406 11.277343-15.789062l14.566407-62.910156c.789062-3.40625.050781-6.976563-2.019531-9.792969-2.070313-2.8125-5.257813-4.582031-8.742188-4.84375zm-99.402344 74.839844c-2.347656 1.464843-5.121094 1.925781-7.816406 1.304687-2.691406-.625-4.984375-2.257812-6.445312-4.605468-1.464844-2.34375-1.929688-5.121094-1.304688-7.8125.625-2.695313 2.257812-4.984376 4.605469-6.449219 1.664062-1.039063 3.546875-1.574219 5.460937-1.574219.78125 0 1.570313.089844 2.351563.273438 2.695312.621093 4.984375 2.257812 6.449219 4.601562 1.464843 2.347656 1.925781 5.121094 1.304687 7.816406-.625 2.691406-2.257813 4.984375-4.605469 6.445313zm76.382813 5.773437c-2.347657 1.460938-5.125 1.925782-7.816407 1.304688-2.695312-.625-4.984374-2.261719-6.449218-4.605469-1.464844-2.347656-1.925782-5.121094-1.304688-7.816406.625-2.691407 2.261719-4.980469 4.605469-6.445313 1.667969-1.039062 3.546875-1.574218 5.460937-1.574218.785157 0 1.574219.089843 2.355469.269531 5.5625 1.289062 9.039063 6.859375 7.75 12.421875-.621093 2.691406-2.257812 4.980468-4.601562 6.445312zm0 0"/><path d="m263.964844 103.664062c15.625 0 28.339844-12.710937 28.339844-28.339843v-57.738281c0-1.355469.867187-2.011719 1.382812-2.28125.515625-.273438 1.550781-.609376 2.664062.164062l16.886719 11.691406c3.40625 2.359375 8.078125 1.507813 10.4375-1.898437 2.355469-3.40625 1.507813-8.078125-1.898437-10.4375l-16.886719-11.6875c-5.394531-3.734375-12.355469-4.164063-18.164063-1.121094-5.8125 3.046875-9.421874 9.011719-9.421874 15.570313v32.746093c-3.980469-2.132812-8.519532-3.34375-13.339844-3.34375-15.628906 0-28.339844 12.710938-28.339844 28.335938 0 15.628906 12.710938 28.339843 28.339844 28.339843zm0-41.675781c7.355468 0 13.339844 5.980469 13.339844 13.335938 0 7.359375-5.984376 13.34375-13.339844 13.34375-7.355469 0-13.339844-5.984375-13.339844-13.34375 0-7.355469 5.984375-13.335938 13.339844-13.335938zm0 0"/><path d="m452.601562 55.390625c-4.9375-9.285156-16.523437-12.851563-25.832031-7.949219l-209.398437 110.292969-29.101563-53.207031c-6.421875-11.753906-20.683593-16.960938-33.171875-12.105469l-7.691406 2.996094 22-41.550781c8.160156-15.433594 2.742188-34.402344-12.332031-43.1875l-4.335938-2.527344c-2.710937-1.585938-5.878906-2.015625-8.917969-1.210938-3.039062.800782-5.582031 2.738282-7.152343 5.441406l-26.777344 45.933594c1.453125-15.769531-9.304687-30.058594-25.023437-32.894531l-2.375-.4375c-2.914063-.519531-5.859376.125-8.289063 1.8125-2.445313 1.695313-4.078125 4.238281-4.597656 7.148437l-17.824219 98.714844-.671875.261719c-6.378906 2.476563-11.472656 7.539063-13.976563 13.875-2.945312 7.425781-7.425781 19.308594-12.03125 33.734375-1.261718 3.945312.914063 8.164062 4.859376 9.425781.761718.242188 1.527343.355469 2.285156.355469 3.175781 0 6.125-2.03125 7.144531-5.21875 4.476563-14.019531 8.828125-25.558594 11.691406-32.777344.976563-2.472656 2.964844-4.445312 5.464844-5.417968 14.683594-5.71875 93.59375-36.449219 103.984375-40.496094 5.484375-2.132813 11.753906.148437 14.574219 5.316406l29.015625 52.992188-11.632813 6.128906c-5.308593-.488282-10.078125-3.371094-12.984375-7.933594l-12.238281-19.242188c-1.78125-2.820312-4.691406-4.75-7.984375-5.289062-3.289062-.542969-6.671875.355469-9.261719 2.457031-8.273437 6.699219-28.492187 23.253907-37.53125 32.28125-7.035156 7.042969-10.214843 23.195313-10.191406 35.222657.023437 13.691406 3.765625 24.9375 10.539063 31.671874 7.777343 7.71875 20.8125 12.675782 32.644531 12.675782 7.773437-.003906 15.027343-2.144532 19.921875-7.046875 2.445312-2.449219 4.480468-5.75 6.839844-9.574219 2.992187-4.863281 6.386718-10.335938 10.957031-14.5l11.21875-6.019531c4.546875-1.019531 9.789062-.796875 15.671875.699219-8.085938 17.644531-13.96875 28.898437-19.679688 39.820312-2.132812 4.078125-4.339844 8.296875-6.601562 12.738281-1.933594 3.789063-5.398438 6.59375-9.503906 7.699219-17.570313 4.714844-30.671876 8.042969-44.542969 11.570312-7.972657 2.023438-16.121094 4.097657-25.398438 6.503907-5.511719 1.425781-9.199219 6.757812-8.570312 12.40625.695312 6.191406 1.597656 12.101562 2.726562 17.929687-21.289062 12.964844-43.285156 23.585938-65.746093 31.753906-7.617188-28.867187-10.734376-59.253906-9.746094-94.867187 1.03125-14.269531 3.785156-30.441406 8.191406-48.078125 1.003906-4.015625-1.4375-8.089844-5.457031-9.09375-4.019531-1-8.089844 1.4375-9.09375 5.457031-4.632813 18.542969-7.53125 35.636719-8.613281 50.804688-.007813.109375-.015626.21875-.019532.324219-1.054687 37.574218 2.296875 69.664062 10.496094 100.289062-2.75.863281-5.5 1.707031-8.261719 2.5-3.59375 1.027344-6.625 3.535156-8.316406 6.875s-1.9179688 7.269531-.621094 10.785156c8.761719 23.722656 20.554688 48.167969 36.0625 74.726563 2.496094 4.273437 7.066407 6.714843 11.757813 6.714843.628906 0 1.257812-.0625 1.882812-.152343 7.121094 12.195312 15.058594 24.867187 24.152344 38.570312l4.742188 7.132813c1.445312 2.171875 3.824218 3.347656 6.253906 3.347656 1.425781 0 2.867187-.40625 4.144531-1.253906 3.449219-2.296875 4.386719-6.949219 2.09375-10.398438l-4.738281-7.125c-8.554688-12.890625-16.046875-24.832031-22.792969-36.3125 28.839844-14.359375 54.601563-29.570312 78.109375-46.128906 5.871094 9.929688 12.546875 20.527344 20.300781 32.210938l4.742188 7.128906c1.441406 2.171875 3.824219 3.347656 6.253906 3.347656 1.425781 0 2.867187-.40625 4.144531-1.253906 3.449219-2.292969 4.386719-6.949219 2.09375-10.398438l-4.738281-7.125c-7.925781-11.941406-14.699219-22.714844-20.605469-32.765625.675782-.507812 1.355469-1.007812 2.027344-1.515625 5.367188-4.066406 6.90625-11.554687 3.578125-17.421875-11.859375-20.894531-21.550781-42.304687-27.285156-60.289062-1.300781-4.078125-4.363281-7.226563-8.402344-8.636719-4.050781-1.414062-8.421875-.855469-11.988281 1.535156-.304688.203125-.609375.398438-.914063.601563-.421875-2.585938-.808593-5.195313-1.144531-7.863281 8.054688-2.082032 15.296875-3.921876 22.394531-5.726563 13.921875-3.539063 27.070313-6.878906 44.742188-11.621094 8.195312-2.207031 15.113281-7.804687 18.976562-15.371093 2.226563-4.378907 4.414063-8.558594 6.527344-12.601563 6.59375-12.609375 13.414063-25.652344 23.515625-48.230469.835938-1.867187.871094-4 .097656-5.894531-.773437-1.898437-2.289062-3.394531-4.195312-4.144531-1.746094-.6875-3.460938-1.292969-5.15625-1.835938l226.78125-121.660156c9.265625-4.972656 12.789062-16.570312 7.855468-25.859375zm-304.609374-32.644531 1.53125.894531c8.101562 4.722656 11.011718 14.917969 6.628906 23.210937l-30.125 56.894532-32.671875 12.722656 10.355469-17.761719c.023437-.039062.046874-.078125.066406-.117187zm-64.328126 17.777344c7.445313 2.09375 12.292969 9.355468 11.203126 17.179687l-4.792969 34.613281-19.179688 32.902344-2.714843 1.058594zm63.441407 348.726562c-2.019531 1.523438-4.0625 3.027344-6.117188 4.527344-.007812.003906-.019531.011718-.027343.019531-26.4375 19.269531-55.863282 36.691406-89.582032 53.042969-.101562.042968-.199218.097656-.296875.144531-.46875.226563-.929687.457031-1.402343.683594-14.402344-24.785157-25.445313-47.613281-33.714844-69.699219 4.632812-1.351562 9.246094-2.808594 13.84375-4.355469h.003906c.019531-.007812.042969-.015625.0625-.023437 27.664062-9.328125 54.679688-22.214844 80.625-38.445313.285156-.15625.5625-.324219.824219-.515625 2.847656-1.792968 5.6875-3.605468 8.511719-5.480468 5.988281 18.203124 15.613281 39.414062 27.269531 60.101562zm-23.699219-159.882812c-3.867188-3.84375-6.09375-11.519532-6.109375-21.058594-.023437-12.070313 3.421875-22.203125 5.800781-24.589844 7.71875-7.707031 25.117188-22.070312 33.492188-28.894531l10.261718 16.136719c2.265626 3.558593 5.140626 6.570312 8.441407 8.9375l-31.320313 16.496093c-4.535156 2.390625-7.867187 6.40625-9.375 11.308594-1.507812 4.898437-1.011718 10.089844 1.394532 14.617187l1.140624 2.144532c2.40625 4.53125 6.433594 7.84375 11.339844 9.335937 1.84375.558594 3.722656.835938 5.59375.835938.375 0 .75-.015625 1.121094-.035157-.136719.15625-.269531.308594-.398438.433594-5.371093 5.382813-23.558593 2.09375-31.382812-5.667968zm314.246094-161.335938-249.21875 133.699219c-.023438.015625-.046875.027343-.070313.039062l-32.367187 17.363281c-.976563.523438-2.101563.636719-3.164063.3125-1.0625-.320312-1.933593-1.039062-2.453125-2.019531l-1.140625-2.144531s0 0-.003906 0c-.519531-.980469-.625-2.105469-.300781-3.167969.328125-1.0625 1.046875-1.929687 2.03125-2.449219l46.769531-24.632812c.027344-.015625.050781-.027344.074219-.039062l18.980468-9.996094c.019532-.011719.039063-.019532.058594-.03125l216.914063-114.253906c.613281-.320313 1.273437-.476563 1.921875-.476563 1.488281 0 2.929687.800781 3.671875 2.199219 1.066406 2.011718.304687 4.523437-1.703125 5.597656zm0 0"/><path d="m108.210938 372.851562c1.3125 2.628907 3.960937 4.148438 6.714843 4.148438 1.125 0 2.269531-.257812 3.347657-.796875l4-2c3.703124-1.851563 5.207031-6.355469 3.355468-10.0625-1.855468-3.703125-6.355468-5.203125-10.066406-3.351563l-4 2c-3.703125 1.851563-5.207031 6.355469-3.351562 10.0625zm0 0"/>
    </symbol>
</svg>